<svg width="20" height="18" viewBox="0 0 20 18" fill="none" xmlns="http://www.w3.org/2000/svg">
<path d="M1.5 18V13.75L14.675 0.6C14.875 0.4 15.1 0.25 15.35 0.15C15.6 0.05 15.85 0 16.1 0C16.3667 0 16.6208 0.05 16.8625 0.15C17.1042 0.25 17.3167 0.4 17.5 0.6L18.9 2C19.1 2.18333 19.25 2.39583 19.35 2.6375C19.45 2.87917 19.5 3.13333 19.5 3.4C19.5 3.65 19.45 3.9 19.35 4.15C19.25 4.4 19.1 4.625 18.9 4.825L5.75 18H1.5ZM3.5 16H4.9L14.725 6.2L14.025 5.475L13.3 4.775L3.5 14.6V16ZM14.025 5.475L13.3 4.775L14.725 6.2L14.025 5.475ZM11.5 18C12.7333 18 13.875 17.6917 14.925 17.075C15.975 16.4583 16.5 15.6 16.5 14.5C16.5 13.9 16.3417 13.3833 16.025 12.95C15.7083 12.5167 15.2833 12.1417 14.75 11.825L13.275 13.3C13.6583 13.4667 13.9583 13.65 14.175 13.85C14.3917 14.05 14.5 14.2667 14.5 14.5C14.5 14.8833 14.1958 15.2292 13.5875 15.5375C12.9792 15.8458 12.2833 16 11.5 16C11.2167 16 10.9792 16.0958 10.7875 16.2875C10.5958 16.4792 10.5 16.7167 10.5 17C10.5 17.2833 10.5958 17.5208 10.7875 17.7125C10.9792 17.9042 11.2167 18 11.5 18ZM2.075 10.35L3.575 8.85C3.24167 8.71667 2.97917 8.57917 2.7875 8.4375C2.59583 8.29583 2.5 8.15 2.5 8C2.5 7.8 2.65 7.6 2.95 7.4C3.25 7.2 3.88333 6.89167 4.85 6.475C6.31667 5.84167 7.29167 5.26667 7.775 4.75C8.25833 4.23333 8.5 3.65 8.5 3C8.5 2.08333 8.13333 1.35417 7.4 0.8125C6.66667 0.270833 5.7 0 4.5 0C3.75 0 3.07917 0.133333 2.4875 0.4C1.89583 0.666667 1.44167 0.991667 1.125 1.375C0.941667 1.59167 0.866667 1.83333 0.9 2.1C0.933333 2.36667 1.05833 2.58333 1.275 2.75C1.49167 2.93333 1.73333 3.00833 2 2.975C2.26667 2.94167 2.49167 2.83333 2.675 2.65C2.90833 2.41667 3.16667 2.25 3.45 2.15C3.73333 2.05 4.08333 2 4.5 2C5.18333 2 5.6875 2.1 6.0125 2.3C6.3375 2.5 6.5 2.73333 6.5 3C6.5 3.23333 6.35417 3.44583 6.0625 3.6375C5.77083 3.82917 5.1 4.16667 4.05 4.65C2.71667 5.23333 1.79167 5.7625 1.275 6.2375C0.758333 6.7125 0.5 7.3 0.5 8C0.5 8.53333 0.641667 8.9875 0.925 9.3625C1.20833 9.7375 1.59167 10.0667 2.075 10.35Z" fill="#1C1B1F"/>
</svg>
