<svg width="21" height="17" viewBox="0 0 21 17" fill="none" xmlns="http://www.w3.org/2000/svg">
<path d="M15.75 15H20.5V17H13.75L15.75 15ZM3.25 17L1.125 14.875C0.741664 14.4917 0.545831 14.0167 0.537497 13.45C0.529164 12.8833 0.716664 12.4 1.1 12L12.1 0.6C12.4833 0.2 12.9542 0 13.5125 0C14.0708 0 14.5417 0.191667 14.925 0.575L19.9 5.55C20.2833 5.93333 20.475 6.40833 20.475 6.975C20.475 7.54167 20.2833 8.01667 19.9 8.4L11.5 17H3.25ZM10.65 15L18.5 6.95L13.55 2L2.5 13.4L4.1 15H10.65Z" fill="#1C1B1F"/>
</svg>
