<svg width="23" height="22" viewBox="0 0 23 22" fill="none" xmlns="http://www.w3.org/2000/svg">
<path d="M5.5 10C4.11667 10 2.9375 9.5125 1.9625 8.5375C0.9875 7.5625 0.5 6.38333 0.5 5C0.5 3.6 0.9875 2.41667 1.9625 1.45C2.9375 0.483333 4.11667 0 5.5 0C6.9 0 8.08333 0.483333 9.05 1.45C10.0167 2.41667 10.5 3.6 10.5 5C10.5 6.38333 10.0167 7.5625 9.05 8.5375C8.08333 9.5125 6.9 10 5.5 10ZM5.5 8C6.35 8 7.0625 7.70833 7.6375 7.125C8.2125 6.54167 8.5 5.83333 8.5 5C8.5 4.15 8.2125 3.4375 7.6375 2.8625C7.0625 2.2875 6.35 2 5.5 2C4.66667 2 3.95833 2.2875 3.375 2.8625C2.79167 3.4375 2.5 4.15 2.5 5C2.5 5.83333 2.79167 6.54167 3.375 7.125C3.95833 7.70833 4.66667 8 5.5 8ZM15.5 22C14.95 22 14.4792 21.8042 14.0875 21.4125C13.6958 21.0208 13.5 20.55 13.5 20V15C13.5 14.45 13.6958 13.9792 14.0875 13.5875C14.4792 13.1958 14.95 13 15.5 13H20.5C21.05 13 21.5208 13.1958 21.9125 13.5875C22.3042 13.9792 22.5 14.45 22.5 15V20C22.5 20.55 22.3042 21.0208 21.9125 21.4125C21.5208 21.8042 21.05 22 20.5 22H15.5ZM15.5 20H20.5V15H15.5V20ZM17.225 6.7L7.2 16.7C7.28333 16.9 7.35417 17.1083 7.4125 17.325C7.47083 17.5417 7.5 17.7667 7.5 18C7.5 18.8333 7.2125 19.5417 6.6375 20.125C6.0625 20.7083 5.35 21 4.5 21C3.66667 21 2.95833 20.7083 2.375 20.125C1.79167 19.5417 1.5 18.8333 1.5 18C1.5 17.15 1.79167 16.4375 2.375 15.8625C2.95833 15.2875 3.66667 15 4.5 15C4.73333 15 4.95833 15.0292 5.175 15.0875C5.39167 15.1458 5.6 15.2167 5.8 15.3L15.8 5.275C15.7167 5.075 15.6458 4.87083 15.5875 4.6625C15.5292 4.45417 15.5 4.23333 15.5 4C15.5 3.15 15.7917 2.4375 16.375 1.8625C16.9583 1.2875 17.6667 1 18.5 1C19.35 1 20.0625 1.2875 20.6375 1.8625C21.2125 2.4375 21.5 3.15 21.5 4C21.5 4.83333 21.2125 5.54167 20.6375 6.125C20.0625 6.70833 19.35 7 18.5 7C18.2667 7 18.0458 6.97083 17.8375 6.9125C17.6292 6.85417 17.425 6.78333 17.225 6.7Z" fill="#1C1B1F"/>
</svg>
