<svg width="21" height="12" viewBox="0 0 21 12" fill="none" xmlns="http://www.w3.org/2000/svg">
<path d="M2.5 12C1.95 12 1.47917 11.8042 1.0875 11.4125C0.695833 11.0208 0.5 10.55 0.5 10V2C0.5 1.45 0.695833 0.979167 1.0875 0.5875C1.47917 0.195833 1.95 0 2.5 0H18.5C19.05 0 19.5208 0.195833 19.9125 0.5875C20.3042 0.979167 20.5 1.45 20.5 2V10C20.5 10.55 20.3042 11.0208 19.9125 11.4125C19.5208 11.8042 19.05 12 18.5 12H2.5ZM2.5 10H18.5V2H15.5V6H13.5V2H11.5V6H9.5V2H7.5V6H5.5V2H2.5V10Z" fill="#1C1B1F"/>
</svg>
